<svg width="512" height="512" viewBox="0 0 512 512" fill="none" xmlns="http://www.w3.org/2000/svg">
<g opacity="0.08">
<path d="M129.05 512C54.5502 512 4.49023 461.941 4.49023 387.44V133.542C4.49023 59.0419 54.5492 8.98193 129.05 8.98193H382.948C457.448 8.98193 507.508 59.0409 507.508 133.542V387.44C507.508 461.94 457.449 512 382.948 512H129.05Z" fill="black"/>
</g>
<path d="M129.05 503.018C54.5502 503.018 4.49023 452.959 4.49023 378.458V124.56C4.49023 50.059 54.5492 0 129.05 0H382.948C457.448 0 507.508 50.059 507.508 124.56V378.458C507.508 452.958 457.449 503.018 382.948 503.018H129.05Z" fill="url(#paint0_linear_337_777)"/>
<g opacity="0.16">
<path d="M382.948 0H129.05C54.5492 0 4.49023 50.059 4.49023 124.56V378.458C4.49023 452.958 54.5492 503.018 129.05 503.018H382.948C457.448 503.018 507.508 452.959 507.508 378.458V124.56C507.508 50.059 457.449 0 382.948 0ZM489.543 378.458C489.543 443.213 447.703 485.053 382.948 485.053H129.05C64.2952 485.053 22.4552 443.213 22.4552 378.458V124.56C22.4552 59.805 64.2952 17.965 129.05 17.965H382.948C447.703 17.965 489.543 59.805 489.543 124.56V378.458Z" fill="url(#paint1_linear_337_777)"/>
</g>
<g opacity="0.16">
<path d="M382.948 0H129.05C54.5492 0 4.49023 50.059 4.49023 124.56V378.458C4.49023 452.958 54.5492 503.018 129.05 503.018H382.948C457.448 503.018 507.508 452.959 507.508 378.458V124.56C507.508 50.059 457.449 0 382.948 0ZM498.525 378.458C498.525 447.587 452.077 494.035 382.948 494.035H129.05C59.9212 494.035 13.4732 447.587 13.4732 378.458V124.56C13.4732 55.431 59.9212 8.983 129.05 8.983H382.948C452.077 8.983 498.525 55.431 498.525 124.56V378.458Z" fill="black"/>
</g>
<path d="M255.999 80.8418C151.82 80.8418 67.3672 151.22 67.3672 238.035C67.3672 287.789 95.6982 333.168 138.481 360.879C142.406 363.421 148.469 367.948 151.344 372.556C154.236 377.128 154.551 382.58 152.602 388.105C150.698 393.62 147.213 398.902 143.413 403.896C139.56 408.89 135.293 413.66 130.9 418.331C130.406 418.825 130.119 419.58 130.244 420.325C130.451 421.538 131.609 422.355 132.822 422.139C148.227 419.723 163.138 415.339 177.294 408.522C185.63 404.435 193.831 399.243 200.801 392.578C203.002 390.467 205.993 389.506 208.966 390.153C224.021 393.405 239.74 395.228 255.998 395.228C360.177 395.228 444.63 324.85 444.63 238.035C444.63 151.22 360.178 80.8418 255.999 80.8418Z" fill="url(#paint2_linear_337_777)"/>
<path d="M136.182 299V205.909H171.091C178.242 205.909 184.242 207.152 189.091 209.636C193.97 212.121 197.652 215.606 200.136 220.091C202.652 224.545 203.909 229.742 203.909 235.682C203.909 241.652 202.636 246.833 200.091 251.227C197.576 255.591 193.864 258.97 188.955 261.364C184.045 263.727 178.015 264.909 170.864 264.909H146V250.909H168.591C172.773 250.909 176.197 250.333 178.864 249.182C181.53 248 183.5 246.288 184.773 244.045C186.076 241.773 186.727 238.985 186.727 235.682C186.727 232.379 186.076 229.561 184.773 227.227C183.47 224.864 181.485 223.076 178.818 221.864C176.152 220.621 172.712 220 168.5 220H153.045V299H136.182ZM184.273 256.818L207.318 299H188.5L165.864 256.818H184.273ZM299.114 237.318H282.114C281.629 234.53 280.735 232.061 279.432 229.909C278.129 227.727 276.508 225.879 274.568 224.364C272.629 222.848 270.417 221.712 267.932 220.955C265.477 220.167 262.826 219.773 259.977 219.773C254.917 219.773 250.432 221.045 246.523 223.591C242.614 226.106 239.553 229.803 237.341 234.682C235.129 239.53 234.023 245.455 234.023 252.455C234.023 259.576 235.129 265.576 237.341 270.455C239.583 275.303 242.644 278.97 246.523 281.455C250.432 283.909 254.902 285.136 259.932 285.136C262.72 285.136 265.326 284.773 267.75 284.045C270.205 283.288 272.402 282.182 274.341 280.727C276.311 279.273 277.962 277.485 279.295 275.364C280.659 273.242 281.598 270.818 282.114 268.091L299.114 268.182C298.477 272.606 297.098 276.758 294.977 280.636C292.886 284.515 290.144 287.939 286.75 290.909C283.356 293.848 279.386 296.152 274.841 297.818C270.295 299.455 265.25 300.273 259.705 300.273C251.523 300.273 244.22 298.379 237.795 294.591C231.371 290.803 226.311 285.333 222.614 278.182C218.917 271.03 217.068 262.455 217.068 252.455C217.068 242.424 218.932 233.848 222.659 226.727C226.386 219.576 231.462 214.106 237.886 210.318C244.311 206.53 251.583 204.636 259.705 204.636C264.886 204.636 269.705 205.364 274.159 206.818C278.614 208.273 282.583 210.409 286.068 213.227C289.553 216.015 292.417 219.439 294.659 223.5C296.932 227.53 298.417 232.136 299.114 237.318ZM365.148 231.5C364.723 227.53 362.936 224.439 359.784 222.227C356.663 220.015 352.602 218.909 347.602 218.909C344.087 218.909 341.072 219.439 338.557 220.5C336.042 221.561 334.117 223 332.784 224.818C331.451 226.636 330.769 228.712 330.739 231.045C330.739 232.985 331.178 234.667 332.057 236.091C332.966 237.515 334.193 238.727 335.739 239.727C337.284 240.697 338.996 241.515 340.875 242.182C342.754 242.848 344.648 243.409 346.557 243.864L355.284 246.045C358.799 246.864 362.178 247.97 365.42 249.364C368.693 250.758 371.617 252.515 374.193 254.636C376.799 256.758 378.86 259.318 380.375 262.318C381.89 265.318 382.648 268.833 382.648 272.864C382.648 278.318 381.254 283.121 378.466 287.273C375.678 291.394 371.648 294.621 366.375 296.955C361.133 299.258 354.784 300.409 347.33 300.409C340.087 300.409 333.799 299.288 328.466 297.045C323.163 294.803 319.011 291.53 316.011 287.227C313.042 282.924 311.436 277.682 311.193 271.5H327.784C328.027 274.742 329.027 277.439 330.784 279.591C332.542 281.742 334.83 283.348 337.648 284.409C340.496 285.47 343.678 286 347.193 286C350.86 286 354.072 285.455 356.83 284.364C359.617 283.242 361.799 281.697 363.375 279.727C364.951 277.727 365.754 275.394 365.784 272.727C365.754 270.303 365.042 268.303 363.648 266.727C362.254 265.121 360.299 263.788 357.784 262.727C355.299 261.636 352.39 260.667 349.057 259.818L338.466 257.091C330.799 255.121 324.739 252.136 320.284 248.136C315.86 244.106 313.648 238.758 313.648 232.091C313.648 226.606 315.133 221.803 318.102 217.682C321.102 213.561 325.178 210.364 330.33 208.091C335.481 205.788 341.314 204.636 347.83 204.636C354.436 204.636 360.223 205.788 365.193 208.091C370.193 210.364 374.117 213.53 376.966 217.591C379.814 221.621 381.284 226.258 381.375 231.5H365.148Z" fill="#49C331"/>
<defs>
<linearGradient id="paint0_linear_337_777" x1="255.999" y1="502.992" x2="255.999" y2="-0.0280035" gradientUnits="userSpaceOnUse">
<stop stop-color="#3FBD2D"/>
<stop offset="1" stop-color="#87EA4A"/>
</linearGradient>
<linearGradient id="paint1_linear_337_777" x1="255.999" y1="502.992" x2="255.999" y2="-0.0280035" gradientUnits="userSpaceOnUse">
<stop/>
<stop offset="0.06" stop-opacity="0"/>
</linearGradient>
<linearGradient id="paint2_linear_337_777" x1="255.999" y1="422.147" x2="255.999" y2="80.8143" gradientUnits="userSpaceOnUse">
<stop stop-color="#E5F6E2"/>
<stop offset="1" stop-color="white"/>
</linearGradient>
</defs>
</svg>
