<svg id="Layer_1" enable-background="new 0 0 512 512" height="512" viewBox="0 0 512 512" width="512" xmlns="http://www.w3.org/2000/svg"><path d="m430.1 234.9c-4.7 42.5-25 81.7-57 110.6-28.3 25.5-63.7 40.9-101.1 44.4v90.1h31.4c8.8 0 16 7.2 16 16s-7.2 16-16 16h-94.9c-8.8 0-16-7.2-16-16s7.2-16 16-16h31.5v-90.1c-37.4-3.4-72.8-18.9-101.1-44.4-32-28.9-52.3-68.1-57-110.6-1-8.8 5.3-16.7 14.1-17.7s16.7 5.3 17.7 14.1c8.1 72.6 69.3 127.3 142.3 127.3s134.2-54.7 142.3-127.3c1-8.8 8.9-15.1 17.7-14.1s15.1 8.9 14.1 17.7zm-281.8-19.5v-107.7c0-59.4 48.3-107.7 107.7-107.7s107.7 48.3 107.7 107.7v107.7c0 59.4-48.3 107.7-107.7 107.7s-107.7-48.3-107.7-107.7zm32 0c0 41.7 33.9 75.7 75.7 75.7s75.7-33.9 75.7-75.7v-107.7c0-41.7-33.9-75.7-75.7-75.7s-75.7 33.9-75.7 75.7z" fill="rgb(0,0,0)"/></svg>