<svg width="512" height="512" viewBox="0 0 512 512" fill="none" xmlns="http://www.w3.org/2000/svg">
<rect width="512" height="512" rx="132" fill="#F44336"/>
<path d="M391.919 239.516C388.249 272.719 372.401 303.344 347.419 325.922C325.325 345.844 297.689 357.875 268.491 360.609V431H293.005C299.875 431 305.496 436.625 305.496 443.5C305.496 450.375 299.875 456 293.005 456H218.917C212.047 456 206.426 450.375 206.426 443.5C206.426 436.625 212.047 431 218.917 431H243.509V360.609C214.311 357.953 186.675 345.844 164.581 325.922C139.599 303.344 123.751 272.719 120.081 239.516C119.301 232.641 124.219 226.469 131.089 225.687C137.959 224.906 144.127 229.828 144.907 236.703C151.231 293.422 199.009 336.156 256 336.156C312.991 336.156 360.769 293.422 367.093 236.703C367.873 229.828 374.041 224.906 380.911 225.687C387.781 226.469 392.699 232.641 391.919 239.516ZM171.919 224.281V140.141C171.919 93.7344 209.627 56 256 56C302.373 56 340.081 93.7344 340.081 140.141V224.281C340.081 270.687 302.373 308.422 256 308.422C209.627 308.422 171.919 270.687 171.919 224.281ZM196.902 224.281C196.902 256.859 223.367 283.422 256 283.422C288.633 283.422 315.098 256.937 315.098 224.281V140.141C315.098 107.562 288.633 81 256 81C223.367 81 196.902 107.484 196.902 140.141V224.281Z" fill="white"/>
</svg>
